<svg xmlns="http://www.w3.org/2000/svg" xmlns:xlink="http://www.w3.org/1999/xlink" preserveAspectRatio="xMidYMid meet" version="1.0" viewBox="0.0 0.0 352.0 335.8" zoomAndPan="magnify" style="fill: rgb(0, 0, 0);" original_string_length="1914"><g id="__id1126_sl2xobrcx5" style="fill: rgb(255, 49, 49);"><path d="M143.955,42.407l-0.928-33.671c1.413-0.76,2.401-2.324,2.401-4.113c0-2.549-1.918-4.623-4.292-4.623 c-2.383,0-4.292,2.074-4.292,4.623c0,2.084,1.301,3.846,3.111,4.408v32.666c-0.562-0.097-1.12-0.198-1.686-0.292V11.4 c0,0-24.519-6.705-35.467,6.51c-10.932,13.217-15.688,14.406-23.316,6.447c0,0,1.758,14.896,16.98,19.637 c12.438,3.854,27.55-18.6,41.803,5.785v-8.033c0.347,0.372,0.923,0.999,1.686,1.856V251.76 c-10.918,8.863-23.966,17.464-39.478,25.666c0,0,16.58-1.643,39.478-4.463v12.024c-34.172,1.058-74.189,1.607-120.954,1.362 c0,0-5.32-0.84-5.16,8.234c0.13,9.059-3.031,41.24,7.757,41.24H48.84c1.354-0.822,2.951-1.457,4.892-1.834 c10.131-1.939,22.546-13.305,33.079-9.764c4.789,1.609,9.487,4.148,14.053,6.322c4.788,2.244,10.251,2.799,15.191,4.713 c0.475,0.168,0.921,0.365,1.354,0.562h23.808c0.979-0.42,2.043-0.742,3.224-0.992c10.403-2.057,19.193-9.291,29.919-10.043 c9.854-0.688,18.33,6.045,27.335,9.201c1.395,0.484,2.602,1.109,3.711,1.834h33.781c0.197-0.125,0.394-0.25,0.591-0.395 c4.256-2.564,9.013-4.176,13.358-6.652c4.829-2.744,9.675-4.801,15.344-4.648c6.886,0.215,11.804,4.336,17.598,7.332 c2.521,1.297,5.258,2.164,8.083,2.879c8.164-4.391,29.973-20.029,40.721-65.471c0,0,4.489-6.527-11.981-1.771 c-12.505,3.6-57.366,13.479-172.271,17.535l-0.357-12.969c34.798-4.475,79.331-11.187,104.26-18.811 c45.012-13.752,87.789,3.049,89.292,12.52C343.823,265.373,352.044,80.643,143.955,42.407z M149.494,243.459l-5.372-194.988 C165.652,74.518,231.176,166.961,149.494,243.459z" style="fill: inherit;"/><path d="M134.533,251.182V57.531C53.034,250.637,0,251.182,0,251.182 C19.569,279.635,134.533,251.182,134.533,251.182z" style="fill: inherit;"/></g></svg>